<mxfile host="Electron" modified="2024-03-12T20:41:12.171Z" agent="Mozilla/5.0 (Windows NT 10.0; Win64; x64) AppleWebKit/537.36 (KHTML, like Gecko) draw.io/23.1.5 Chrome/120.0.6099.109 Electron/28.1.0 Safari/537.36" etag="Rn2pc-OlnGWFyaK516F_" version="23.1.5" type="device">
  <diagram name="Page-1" id="UsaiNchTn9z4ea0Z4n8r">
    <mxGraphModel dx="1434" dy="844" grid="1" gridSize="10" guides="1" tooltips="1" connect="1" arrows="1" fold="1" page="1" pageScale="1" pageWidth="827" pageHeight="1169" math="0" shadow="0">
      <root>
        <mxCell id="0" />
        <mxCell id="1" parent="0" />
        <mxCell id="BzQ77mKXMBp4ncx8uUWl-3" value="Client" style="shape=umlActor;verticalLabelPosition=bottom;verticalAlign=top;html=1;outlineConnect=0;" parent="1" vertex="1">
          <mxGeometry x="50" y="510" width="30" height="60" as="geometry" />
        </mxCell>
        <mxCell id="BzQ77mKXMBp4ncx8uUWl-4" value="Tour agent" style="shape=umlActor;verticalLabelPosition=bottom;verticalAlign=top;html=1;outlineConnect=0;" parent="1" vertex="1">
          <mxGeometry x="780" y="700" width="30" height="60" as="geometry" />
        </mxCell>
        <mxCell id="BzQ77mKXMBp4ncx8uUWl-5" value="Create account" style="ellipse;whiteSpace=wrap;html=1;" parent="1" vertex="1">
          <mxGeometry x="160" y="940" width="140" height="70" as="geometry" />
        </mxCell>
        <mxCell id="BzQ77mKXMBp4ncx8uUWl-8" value="Log in" style="ellipse;whiteSpace=wrap;html=1;" parent="1" vertex="1">
          <mxGeometry x="420" y="650" width="140" height="70" as="geometry" />
        </mxCell>
        <mxCell id="BzQ77mKXMBp4ncx8uUWl-9" value="" style="endArrow=none;html=1;rounded=0;entryX=1;entryY=0.3333333333333333;entryDx=0;entryDy=0;entryPerimeter=0;exitX=0;exitY=0;exitDx=0;exitDy=0;" parent="1" source="BzQ77mKXMBp4ncx8uUWl-8" target="BzQ77mKXMBp4ncx8uUWl-3" edge="1">
          <mxGeometry width="50" height="50" relative="1" as="geometry">
            <mxPoint x="300" y="725" as="sourcePoint" />
            <mxPoint x="120" y="720" as="targetPoint" />
          </mxGeometry>
        </mxCell>
        <mxCell id="3HZaJUwvoDpLjbgWA0wx-1" value="Search tours" style="ellipse;whiteSpace=wrap;html=1;" vertex="1" parent="1">
          <mxGeometry x="420" y="540" width="140" height="70" as="geometry" />
        </mxCell>
        <mxCell id="3HZaJUwvoDpLjbgWA0wx-3" value="Default user" style="shape=umlActor;verticalLabelPosition=bottom;verticalAlign=top;html=1;outlineConnect=0;" vertex="1" parent="1">
          <mxGeometry x="70" y="850" width="30" height="60" as="geometry" />
        </mxCell>
        <mxCell id="3HZaJUwvoDpLjbgWA0wx-4" value="" style="endArrow=none;html=1;rounded=0;entryX=1;entryY=0.3333333333333333;entryDx=0;entryDy=0;entryPerimeter=0;exitX=0;exitY=0.5;exitDx=0;exitDy=0;" edge="1" parent="1" source="BzQ77mKXMBp4ncx8uUWl-5" target="3HZaJUwvoDpLjbgWA0wx-3">
          <mxGeometry width="50" height="50" relative="1" as="geometry">
            <mxPoint x="410" y="1070" as="sourcePoint" />
            <mxPoint x="220" y="930" as="targetPoint" />
          </mxGeometry>
        </mxCell>
        <mxCell id="3HZaJUwvoDpLjbgWA0wx-5" value="" style="endArrow=none;html=1;rounded=0;entryX=1;entryY=0;entryDx=0;entryDy=0;exitX=0;exitY=0.3333333333333333;exitDx=0;exitDy=0;exitPerimeter=0;" edge="1" parent="1" source="BzQ77mKXMBp4ncx8uUWl-4" target="BzQ77mKXMBp4ncx8uUWl-8">
          <mxGeometry width="50" height="50" relative="1" as="geometry">
            <mxPoint x="840" y="734.66" as="sourcePoint" />
            <mxPoint x="520" y="734.66" as="targetPoint" />
          </mxGeometry>
        </mxCell>
        <mxCell id="3HZaJUwvoDpLjbgWA0wx-6" value="" style="endArrow=none;html=1;rounded=0;entryX=1;entryY=0.5;entryDx=0;entryDy=0;exitX=0;exitY=0.3333333333333333;exitDx=0;exitDy=0;exitPerimeter=0;" edge="1" parent="1" source="BzQ77mKXMBp4ncx8uUWl-4" target="3HZaJUwvoDpLjbgWA0wx-1">
          <mxGeometry width="50" height="50" relative="1" as="geometry">
            <mxPoint x="890" y="580" as="sourcePoint" />
            <mxPoint x="560" y="690" as="targetPoint" />
          </mxGeometry>
        </mxCell>
        <mxCell id="3HZaJUwvoDpLjbgWA0wx-8" value="Edit account" style="ellipse;whiteSpace=wrap;html=1;" vertex="1" parent="1">
          <mxGeometry x="420" y="740" width="140" height="70" as="geometry" />
        </mxCell>
        <mxCell id="3HZaJUwvoDpLjbgWA0wx-9" value="" style="endArrow=none;html=1;rounded=0;entryX=1;entryY=0.3333333333333333;entryDx=0;entryDy=0;entryPerimeter=0;exitX=0;exitY=0;exitDx=0;exitDy=0;" edge="1" parent="1" source="3HZaJUwvoDpLjbgWA0wx-8" target="BzQ77mKXMBp4ncx8uUWl-3">
          <mxGeometry width="50" height="50" relative="1" as="geometry">
            <mxPoint x="480" y="925" as="sourcePoint" />
            <mxPoint x="170" y="710" as="targetPoint" />
          </mxGeometry>
        </mxCell>
        <mxCell id="3HZaJUwvoDpLjbgWA0wx-10" value="" style="endArrow=none;html=1;rounded=0;entryX=1;entryY=0;entryDx=0;entryDy=0;exitX=0;exitY=0.3333333333333333;exitDx=0;exitDy=0;exitPerimeter=0;" edge="1" parent="1" source="BzQ77mKXMBp4ncx8uUWl-4" target="3HZaJUwvoDpLjbgWA0wx-8">
          <mxGeometry width="50" height="50" relative="1" as="geometry">
            <mxPoint x="927" y="1005" as="sourcePoint" />
            <mxPoint x="617" y="790" as="targetPoint" />
          </mxGeometry>
        </mxCell>
        <mxCell id="3HZaJUwvoDpLjbgWA0wx-11" value="" style="endArrow=none;html=1;rounded=0;exitX=0;exitY=0.5;exitDx=0;exitDy=0;entryX=1;entryY=0.3333333333333333;entryDx=0;entryDy=0;entryPerimeter=0;" edge="1" parent="1" source="3HZaJUwvoDpLjbgWA0wx-1" target="3HZaJUwvoDpLjbgWA0wx-3">
          <mxGeometry width="50" height="50" relative="1" as="geometry">
            <mxPoint x="450" y="955" as="sourcePoint" />
            <mxPoint x="110" y="840" as="targetPoint" />
          </mxGeometry>
        </mxCell>
        <mxCell id="3HZaJUwvoDpLjbgWA0wx-12" value="View tour details" style="ellipse;whiteSpace=wrap;html=1;" vertex="1" parent="1">
          <mxGeometry x="420" y="350" width="140" height="70" as="geometry" />
        </mxCell>
        <mxCell id="3HZaJUwvoDpLjbgWA0wx-13" value="" style="endArrow=block;endSize=16;endFill=0;html=1;rounded=0;entryX=0.5;entryY=0;entryDx=0;entryDy=0;entryPerimeter=0;exitX=0;exitY=0.3333333333333333;exitDx=0;exitDy=0;exitPerimeter=0;" edge="1" parent="1" source="BzQ77mKXMBp4ncx8uUWl-3" target="3HZaJUwvoDpLjbgWA0wx-3">
          <mxGeometry x="-0.0021" width="160" relative="1" as="geometry">
            <mxPoint x="120" y="590" as="sourcePoint" />
            <mxPoint x="270" y="740" as="targetPoint" />
            <mxPoint as="offset" />
          </mxGeometry>
        </mxCell>
        <mxCell id="3HZaJUwvoDpLjbgWA0wx-14" value="" style="endArrow=none;html=1;rounded=0;entryX=1;entryY=0.5;entryDx=0;entryDy=0;exitX=0;exitY=0.3333333333333333;exitDx=0;exitDy=0;exitPerimeter=0;" edge="1" parent="1" source="BzQ77mKXMBp4ncx8uUWl-4" target="3HZaJUwvoDpLjbgWA0wx-12">
          <mxGeometry width="50" height="50" relative="1" as="geometry">
            <mxPoint x="860" y="625" as="sourcePoint" />
            <mxPoint x="590" y="490" as="targetPoint" />
          </mxGeometry>
        </mxCell>
        <mxCell id="3HZaJUwvoDpLjbgWA0wx-16" value="" style="endArrow=none;html=1;rounded=0;entryX=1;entryY=0.3333333333333333;entryDx=0;entryDy=0;exitX=0;exitY=0;exitDx=0;exitDy=0;entryPerimeter=0;" edge="1" parent="1" source="3HZaJUwvoDpLjbgWA0wx-12" target="BzQ77mKXMBp4ncx8uUWl-3">
          <mxGeometry width="50" height="50" relative="1" as="geometry">
            <mxPoint x="480" y="655" as="sourcePoint" />
            <mxPoint x="210" y="420" as="targetPoint" />
          </mxGeometry>
        </mxCell>
        <mxCell id="3HZaJUwvoDpLjbgWA0wx-17" value="Edit tourlist" style="ellipse;whiteSpace=wrap;html=1;" vertex="1" parent="1">
          <mxGeometry x="660" y="390" width="140" height="70" as="geometry" />
        </mxCell>
        <mxCell id="3HZaJUwvoDpLjbgWA0wx-18" value="" style="endArrow=none;html=1;rounded=0;entryX=0.5;entryY=1;entryDx=0;entryDy=0;exitX=0;exitY=0.3333333333333333;exitDx=0;exitDy=0;exitPerimeter=0;" edge="1" parent="1" source="BzQ77mKXMBp4ncx8uUWl-4" target="3HZaJUwvoDpLjbgWA0wx-17">
          <mxGeometry width="50" height="50" relative="1" as="geometry">
            <mxPoint x="840" y="720" as="sourcePoint" />
            <mxPoint x="570" y="485" as="targetPoint" />
          </mxGeometry>
        </mxCell>
        <mxCell id="3HZaJUwvoDpLjbgWA0wx-23" value="Edit payment data" style="ellipse;whiteSpace=wrap;html=1;" vertex="1" parent="1">
          <mxGeometry x="220" y="870" width="140" height="70" as="geometry" />
        </mxCell>
        <mxCell id="3HZaJUwvoDpLjbgWA0wx-24" value="" style="endArrow=none;html=1;rounded=0;entryX=1;entryY=0.3333333333333333;entryDx=0;entryDy=0;entryPerimeter=0;exitX=0;exitY=0;exitDx=0;exitDy=0;" edge="1" parent="1" source="3HZaJUwvoDpLjbgWA0wx-23" target="BzQ77mKXMBp4ncx8uUWl-3">
          <mxGeometry width="50" height="50" relative="1" as="geometry">
            <mxPoint x="450" y="995" as="sourcePoint" />
            <mxPoint x="110" y="580" as="targetPoint" />
          </mxGeometry>
        </mxCell>
        <mxCell id="3HZaJUwvoDpLjbgWA0wx-26" value="&amp;lt;&amp;lt;extends&amp;gt;&amp;gt;" style="endArrow=open;endSize=12;dashed=1;html=1;rounded=0;exitX=0.5;exitY=0;exitDx=0;exitDy=0;entryX=0.5;entryY=1;entryDx=0;entryDy=0;" edge="1" parent="1" source="3HZaJUwvoDpLjbgWA0wx-1" target="3HZaJUwvoDpLjbgWA0wx-27">
          <mxGeometry width="160" relative="1" as="geometry">
            <mxPoint x="370" y="520" as="sourcePoint" />
            <mxPoint x="530" y="520" as="targetPoint" />
          </mxGeometry>
        </mxCell>
        <mxCell id="3HZaJUwvoDpLjbgWA0wx-27" value="Add searching criteria" style="ellipse;whiteSpace=wrap;html=1;" vertex="1" parent="1">
          <mxGeometry x="420" y="430" width="140" height="70" as="geometry" />
        </mxCell>
        <mxCell id="3HZaJUwvoDpLjbgWA0wx-29" value="" style="endArrow=none;html=1;rounded=0;entryX=0;entryY=0.5;entryDx=0;entryDy=0;exitX=1;exitY=0;exitDx=0;exitDy=0;" edge="1" parent="1" source="3HZaJUwvoDpLjbgWA0wx-1" target="3HZaJUwvoDpLjbgWA0wx-17">
          <mxGeometry width="50" height="50" relative="1" as="geometry">
            <mxPoint x="670" y="680" as="sourcePoint" />
            <mxPoint x="660" y="470" as="targetPoint" />
          </mxGeometry>
        </mxCell>
        <mxCell id="3HZaJUwvoDpLjbgWA0wx-30" value="Update" style="edgeLabel;html=1;align=center;verticalAlign=middle;resizable=0;points=[];" vertex="1" connectable="0" parent="3HZaJUwvoDpLjbgWA0wx-29">
          <mxGeometry x="-0.1062" y="-3" relative="1" as="geometry">
            <mxPoint as="offset" />
          </mxGeometry>
        </mxCell>
        <mxCell id="3HZaJUwvoDpLjbgWA0wx-31" value="Add review" style="ellipse;whiteSpace=wrap;html=1;" vertex="1" parent="1">
          <mxGeometry x="210" y="170" width="140" height="70" as="geometry" />
        </mxCell>
        <mxCell id="3HZaJUwvoDpLjbgWA0wx-34" value="&amp;lt;&amp;lt;extends&amp;gt;&amp;gt;" style="endArrow=open;endSize=12;dashed=1;html=1;rounded=0;exitX=0.5;exitY=0;exitDx=0;exitDy=0;entryX=1;entryY=1;entryDx=0;entryDy=0;" edge="1" parent="1" source="3HZaJUwvoDpLjbgWA0wx-31" target="3HZaJUwvoDpLjbgWA0wx-37">
          <mxGeometry width="160" relative="1" as="geometry">
            <mxPoint x="220.00000000000045" y="104.99999999999989" as="sourcePoint" />
            <mxPoint x="150" y="110" as="targetPoint" />
          </mxGeometry>
        </mxCell>
        <mxCell id="3HZaJUwvoDpLjbgWA0wx-36" value="&amp;lt;&amp;lt;includes&amp;gt;&amp;gt;" style="endArrow=open;endSize=12;dashed=1;html=1;rounded=0;exitX=0.5;exitY=0;exitDx=0;exitDy=0;entryX=0;entryY=1;entryDx=0;entryDy=0;" edge="1" parent="1" source="3HZaJUwvoDpLjbgWA0wx-31" target="3HZaJUwvoDpLjbgWA0wx-38">
          <mxGeometry width="160" relative="1" as="geometry">
            <mxPoint x="305" y="140" as="sourcePoint" />
            <mxPoint x="320" y="120" as="targetPoint" />
          </mxGeometry>
        </mxCell>
        <mxCell id="3HZaJUwvoDpLjbgWA0wx-37" value="Add message" style="ellipse;whiteSpace=wrap;html=1;" vertex="1" parent="1">
          <mxGeometry x="100" y="60" width="140" height="70" as="geometry" />
        </mxCell>
        <mxCell id="3HZaJUwvoDpLjbgWA0wx-38" value="Add rating" style="ellipse;whiteSpace=wrap;html=1;" vertex="1" parent="1">
          <mxGeometry x="330" y="60" width="140" height="70" as="geometry" />
        </mxCell>
        <mxCell id="3HZaJUwvoDpLjbgWA0wx-40" value="" style="endArrow=none;html=1;rounded=0;entryX=1;entryY=0.3333333333333333;entryDx=0;entryDy=0;entryPerimeter=0;exitX=0;exitY=1;exitDx=0;exitDy=0;" edge="1" parent="1" source="3HZaJUwvoDpLjbgWA0wx-31" target="BzQ77mKXMBp4ncx8uUWl-3">
          <mxGeometry width="50" height="50" relative="1" as="geometry">
            <mxPoint x="390" y="370" as="sourcePoint" />
            <mxPoint x="90" y="465" as="targetPoint" />
          </mxGeometry>
        </mxCell>
        <mxCell id="3HZaJUwvoDpLjbgWA0wx-42" value="Add tour to wishlist" style="ellipse;whiteSpace=wrap;html=1;" vertex="1" parent="1">
          <mxGeometry x="250" y="260" width="140" height="70" as="geometry" />
        </mxCell>
        <mxCell id="3HZaJUwvoDpLjbgWA0wx-43" value="" style="endArrow=none;html=1;rounded=0;entryX=1;entryY=0.3333333333333333;entryDx=0;entryDy=0;entryPerimeter=0;" edge="1" parent="1" target="BzQ77mKXMBp4ncx8uUWl-3">
          <mxGeometry width="50" height="50" relative="1" as="geometry">
            <mxPoint x="250" y="295" as="sourcePoint" />
            <mxPoint x="150" y="520" as="targetPoint" />
          </mxGeometry>
        </mxCell>
        <mxCell id="3HZaJUwvoDpLjbgWA0wx-44" value="View wishlist" style="ellipse;whiteSpace=wrap;html=1;" vertex="1" parent="1">
          <mxGeometry x="220" y="770" width="140" height="70" as="geometry" />
        </mxCell>
        <mxCell id="3HZaJUwvoDpLjbgWA0wx-45" value="" style="endArrow=none;html=1;rounded=0;entryX=1;entryY=0.3333333333333333;entryDx=0;entryDy=0;exitX=0.5;exitY=0;exitDx=0;exitDy=0;entryPerimeter=0;" edge="1" parent="1" source="3HZaJUwvoDpLjbgWA0wx-44" target="BzQ77mKXMBp4ncx8uUWl-3">
          <mxGeometry width="50" height="50" relative="1" as="geometry">
            <mxPoint x="230" y="525" as="sourcePoint" />
            <mxPoint x="90" y="520" as="targetPoint" />
          </mxGeometry>
        </mxCell>
        <mxCell id="3HZaJUwvoDpLjbgWA0wx-46" value="Book tour" style="ellipse;whiteSpace=wrap;html=1;" vertex="1" parent="1">
          <mxGeometry x="200" y="470" width="140" height="70" as="geometry" />
        </mxCell>
        <mxCell id="3HZaJUwvoDpLjbgWA0wx-47" value="" style="endArrow=none;html=1;rounded=0;entryX=1;entryY=0.3333333333333333;entryDx=0;entryDy=0;exitX=0;exitY=0.5;exitDx=0;exitDy=0;entryPerimeter=0;" edge="1" parent="1" source="3HZaJUwvoDpLjbgWA0wx-46" target="BzQ77mKXMBp4ncx8uUWl-3">
          <mxGeometry width="50" height="50" relative="1" as="geometry">
            <mxPoint x="430" y="395" as="sourcePoint" />
            <mxPoint x="90" y="540" as="targetPoint" />
          </mxGeometry>
        </mxCell>
        <mxCell id="3HZaJUwvoDpLjbgWA0wx-48" value="Communicate" style="ellipse;whiteSpace=wrap;html=1;" vertex="1" parent="1">
          <mxGeometry x="420" y="250" width="140" height="70" as="geometry" />
        </mxCell>
        <mxCell id="3HZaJUwvoDpLjbgWA0wx-49" value="&amp;lt;&amp;lt;extends&amp;gt;&amp;gt;" style="endArrow=open;endSize=12;dashed=1;html=1;rounded=0;exitX=0.5;exitY=0;exitDx=0;exitDy=0;entryX=0;entryY=1;entryDx=0;entryDy=0;" edge="1" parent="1" source="3HZaJUwvoDpLjbgWA0wx-46" target="3HZaJUwvoDpLjbgWA0wx-48">
          <mxGeometry width="160" relative="1" as="geometry">
            <mxPoint x="401" y="430" as="sourcePoint" />
            <mxPoint x="340" y="380" as="targetPoint" />
          </mxGeometry>
        </mxCell>
        <mxCell id="3HZaJUwvoDpLjbgWA0wx-50" value="" style="endArrow=none;html=1;rounded=0;entryX=1;entryY=0.5;entryDx=0;entryDy=0;exitX=0;exitY=0.3333333333333333;exitDx=0;exitDy=0;exitPerimeter=0;" edge="1" parent="1" source="BzQ77mKXMBp4ncx8uUWl-4" target="3HZaJUwvoDpLjbgWA0wx-48">
          <mxGeometry width="50" height="50" relative="1" as="geometry">
            <mxPoint x="850" y="720" as="sourcePoint" />
            <mxPoint x="780" y="510" as="targetPoint" />
          </mxGeometry>
        </mxCell>
        <mxCell id="3HZaJUwvoDpLjbgWA0wx-53" value="Choose payment" style="ellipse;whiteSpace=wrap;html=1;" vertex="1" parent="1">
          <mxGeometry x="180" y="360" width="140" height="70" as="geometry" />
        </mxCell>
        <mxCell id="3HZaJUwvoDpLjbgWA0wx-54" value="&amp;lt;&amp;lt;includes&amp;gt;&amp;gt;" style="endArrow=open;endSize=12;dashed=1;html=1;rounded=0;exitX=0.5;exitY=0;exitDx=0;exitDy=0;entryX=0;entryY=1;entryDx=0;entryDy=0;" edge="1" parent="1" source="3HZaJUwvoDpLjbgWA0wx-46" target="3HZaJUwvoDpLjbgWA0wx-53">
          <mxGeometry width="160" relative="1" as="geometry">
            <mxPoint x="280" y="480" as="sourcePoint" />
            <mxPoint x="451" y="320" as="targetPoint" />
          </mxGeometry>
        </mxCell>
      </root>
    </mxGraphModel>
  </diagram>
</mxfile>
